<mxfile host="app.diagrams.net" agent="Mozilla/5.0 (X11; Ubuntu; Linux x86_64; rv:130.0) Gecko/20100101 Firefox/130.0" version="24.7.16">
  <diagram id="R2lEEEUBdFMjLlhIrx00" name="Page-1">
    <mxGraphModel dx="340" dy="366" grid="1" gridSize="10" guides="1" tooltips="1" connect="1" arrows="1" fold="1" page="1" pageScale="1" pageWidth="850" pageHeight="1100" math="0" shadow="0" extFonts="Permanent Marker^https://fonts.googleapis.com/css?family=Permanent+Marker">
      <root>
        <mxCell id="0" />
        <mxCell id="1" parent="0" />
        <mxCell id="FF8oIaPpPTEZRq6Hy1B0-1" value="&lt;div&gt;ALUNO&lt;/div&gt;" style="whiteSpace=wrap;html=1;align=center;" parent="1" vertex="1">
          <mxGeometry x="200" y="130" width="100" height="40" as="geometry" />
        </mxCell>
        <mxCell id="FF8oIaPpPTEZRq6Hy1B0-8" value="E-mail" style="ellipse;whiteSpace=wrap;html=1;align=center;" parent="1" vertex="1">
          <mxGeometry x="60" y="130" width="100" height="40" as="geometry" />
        </mxCell>
        <mxCell id="FF8oIaPpPTEZRq6Hy1B0-9" value="Idade" style="ellipse;whiteSpace=wrap;html=1;align=center;" parent="1" vertex="1">
          <mxGeometry x="80" y="80" width="100" height="40" as="geometry" />
        </mxCell>
        <mxCell id="FF8oIaPpPTEZRq6Hy1B0-10" value="Status Plano" style="ellipse;whiteSpace=wrap;html=1;align=center;" parent="1" vertex="1">
          <mxGeometry x="140" y="40" width="100" height="40" as="geometry" />
        </mxCell>
        <mxCell id="FF8oIaPpPTEZRq6Hy1B0-11" value="Histórico" style="ellipse;whiteSpace=wrap;html=1;align=center;" parent="1" vertex="1">
          <mxGeometry x="250" y="50" width="100" height="40" as="geometry" />
        </mxCell>
        <mxCell id="FF8oIaPpPTEZRq6Hy1B0-13" value="" style="endArrow=none;html=1;rounded=0;" parent="1" target="FF8oIaPpPTEZRq6Hy1B0-1" edge="1" source="FF8oIaPpPTEZRq6Hy1B0-151">
          <mxGeometry relative="1" as="geometry">
            <mxPoint x="180" y="200.0000000000001" as="sourcePoint" />
            <mxPoint x="410" y="199.5" as="targetPoint" />
          </mxGeometry>
        </mxCell>
        <mxCell id="FF8oIaPpPTEZRq6Hy1B0-17" value="" style="endArrow=none;html=1;rounded=0;" parent="1" target="FF8oIaPpPTEZRq6Hy1B0-1" edge="1" source="FF8oIaPpPTEZRq6Hy1B0-8">
          <mxGeometry relative="1" as="geometry">
            <mxPoint x="170" y="150" as="sourcePoint" />
            <mxPoint x="190" y="150" as="targetPoint" />
          </mxGeometry>
        </mxCell>
        <mxCell id="FF8oIaPpPTEZRq6Hy1B0-21" value="" style="endArrow=none;html=1;rounded=0;" parent="1" source="FF8oIaPpPTEZRq6Hy1B0-10" target="FF8oIaPpPTEZRq6Hy1B0-1" edge="1">
          <mxGeometry relative="1" as="geometry">
            <mxPoint x="250" y="100" as="sourcePoint" />
            <mxPoint x="390" y="99.5" as="targetPoint" />
            <Array as="points">
              <mxPoint x="220" y="110" />
            </Array>
          </mxGeometry>
        </mxCell>
        <mxCell id="FF8oIaPpPTEZRq6Hy1B0-42" value="Estudam" style="shape=rhombus;perimeter=rhombusPerimeter;whiteSpace=wrap;html=1;align=center;" parent="1" vertex="1">
          <mxGeometry x="460" y="120" width="120" height="60" as="geometry" />
        </mxCell>
        <mxCell id="FF8oIaPpPTEZRq6Hy1B0-43" value="" style="endArrow=none;html=1;rounded=0;" parent="1" source="FF8oIaPpPTEZRq6Hy1B0-42" target="FF8oIaPpPTEZRq6Hy1B0-1" edge="1">
          <mxGeometry relative="1" as="geometry">
            <mxPoint x="350" y="210" as="sourcePoint" />
            <mxPoint x="510" y="210" as="targetPoint" />
          </mxGeometry>
        </mxCell>
        <mxCell id="FF8oIaPpPTEZRq6Hy1B0-44" value="&lt;div&gt;(1,1)&lt;/div&gt;" style="resizable=0;html=1;whiteSpace=wrap;align=right;verticalAlign=bottom;" parent="FF8oIaPpPTEZRq6Hy1B0-43" connectable="0" vertex="1">
          <mxGeometry x="1" relative="1" as="geometry">
            <mxPoint x="110" as="offset" />
          </mxGeometry>
        </mxCell>
        <mxCell id="FF8oIaPpPTEZRq6Hy1B0-45" value="CURSO" style="whiteSpace=wrap;html=1;align=center;" parent="1" vertex="1">
          <mxGeometry x="720" y="130" width="100" height="40" as="geometry" />
        </mxCell>
        <mxCell id="FF8oIaPpPTEZRq6Hy1B0-55" value="Nome" style="ellipse;whiteSpace=wrap;html=1;align=center;fontStyle=4;" parent="1" vertex="1">
          <mxGeometry x="730" y="30" width="100" height="40" as="geometry" />
        </mxCell>
        <mxCell id="FF8oIaPpPTEZRq6Hy1B0-56" value="Descrição" style="ellipse;whiteSpace=wrap;html=1;align=center;" parent="1" vertex="1">
          <mxGeometry x="600" y="70" width="100" height="40" as="geometry" />
        </mxCell>
        <mxCell id="FF8oIaPpPTEZRq6Hy1B0-57" value="Nível" style="ellipse;whiteSpace=wrap;html=1;align=center;" parent="1" vertex="1">
          <mxGeometry x="620" y="190" width="100" height="40" as="geometry" />
        </mxCell>
        <mxCell id="FF8oIaPpPTEZRq6Hy1B0-58" value="Data de Lançamento" style="ellipse;whiteSpace=wrap;html=1;align=center;" parent="1" vertex="1">
          <mxGeometry x="840" y="190" width="100" height="40" as="geometry" />
        </mxCell>
        <mxCell id="FF8oIaPpPTEZRq6Hy1B0-59" value="Duração" style="ellipse;whiteSpace=wrap;html=1;align=center;" parent="1" vertex="1">
          <mxGeometry x="870" y="60" width="100" height="40" as="geometry" />
        </mxCell>
        <mxCell id="FF8oIaPpPTEZRq6Hy1B0-66" value="" style="endArrow=none;html=1;rounded=0;" parent="1" source="FF8oIaPpPTEZRq6Hy1B0-55" target="FF8oIaPpPTEZRq6Hy1B0-45" edge="1">
          <mxGeometry relative="1" as="geometry">
            <mxPoint x="420" y="410" as="sourcePoint" />
            <mxPoint x="580" y="410" as="targetPoint" />
          </mxGeometry>
        </mxCell>
        <mxCell id="FF8oIaPpPTEZRq6Hy1B0-67" value="" style="endArrow=none;html=1;rounded=0;" parent="1" source="FF8oIaPpPTEZRq6Hy1B0-56" target="FF8oIaPpPTEZRq6Hy1B0-45" edge="1">
          <mxGeometry relative="1" as="geometry">
            <mxPoint x="482" y="432" as="sourcePoint" />
            <mxPoint x="514" y="450" as="targetPoint" />
          </mxGeometry>
        </mxCell>
        <mxCell id="FF8oIaPpPTEZRq6Hy1B0-68" value="" style="endArrow=none;html=1;rounded=0;" parent="1" source="FF8oIaPpPTEZRq6Hy1B0-57" target="FF8oIaPpPTEZRq6Hy1B0-45" edge="1">
          <mxGeometry relative="1" as="geometry">
            <mxPoint x="492" y="442" as="sourcePoint" />
            <mxPoint x="524" y="460" as="targetPoint" />
          </mxGeometry>
        </mxCell>
        <mxCell id="FF8oIaPpPTEZRq6Hy1B0-69" value="" style="endArrow=none;html=1;rounded=0;" parent="1" source="FF8oIaPpPTEZRq6Hy1B0-45" target="FF8oIaPpPTEZRq6Hy1B0-59" edge="1">
          <mxGeometry relative="1" as="geometry">
            <mxPoint x="502" y="452" as="sourcePoint" />
            <mxPoint x="534" y="470" as="targetPoint" />
          </mxGeometry>
        </mxCell>
        <mxCell id="FF8oIaPpPTEZRq6Hy1B0-73" value="Ministram" style="shape=rhombus;perimeter=rhombusPerimeter;whiteSpace=wrap;html=1;align=center;" parent="1" vertex="1">
          <mxGeometry x="1030" y="120" width="120" height="60" as="geometry" />
        </mxCell>
        <mxCell id="FF8oIaPpPTEZRq6Hy1B0-74" value="" style="endArrow=none;html=1;rounded=0;" parent="1" source="FF8oIaPpPTEZRq6Hy1B0-73" target="FF8oIaPpPTEZRq6Hy1B0-45" edge="1">
          <mxGeometry relative="1" as="geometry">
            <mxPoint x="750" y="410" as="sourcePoint" />
            <mxPoint x="910" y="410" as="targetPoint" />
          </mxGeometry>
        </mxCell>
        <mxCell id="FF8oIaPpPTEZRq6Hy1B0-75" value="(1,N)" style="resizable=0;html=1;whiteSpace=wrap;align=right;verticalAlign=bottom;" parent="FF8oIaPpPTEZRq6Hy1B0-74" connectable="0" vertex="1">
          <mxGeometry x="1" relative="1" as="geometry">
            <mxPoint x="140" y="-10" as="offset" />
          </mxGeometry>
        </mxCell>
        <mxCell id="FF8oIaPpPTEZRq6Hy1B0-76" value="PROFESSOR" style="whiteSpace=wrap;html=1;align=center;" parent="1" vertex="1">
          <mxGeometry x="1310" y="130" width="100" height="40" as="geometry" />
        </mxCell>
        <mxCell id="FF8oIaPpPTEZRq6Hy1B0-77" value="" style="endArrow=none;html=1;rounded=0;entryX=0;entryY=0.5;entryDx=0;entryDy=0;exitX=1;exitY=0.5;exitDx=0;exitDy=0;" parent="1" source="FF8oIaPpPTEZRq6Hy1B0-73" target="FF8oIaPpPTEZRq6Hy1B0-76" edge="1">
          <mxGeometry relative="1" as="geometry">
            <mxPoint x="880" y="410" as="sourcePoint" />
            <mxPoint x="1040" y="410" as="targetPoint" />
          </mxGeometry>
        </mxCell>
        <mxCell id="FF8oIaPpPTEZRq6Hy1B0-78" value="(1,N)" style="resizable=0;html=1;whiteSpace=wrap;align=right;verticalAlign=bottom;" parent="FF8oIaPpPTEZRq6Hy1B0-77" connectable="0" vertex="1">
          <mxGeometry x="1" relative="1" as="geometry">
            <mxPoint x="-60" y="-10" as="offset" />
          </mxGeometry>
        </mxCell>
        <mxCell id="FF8oIaPpPTEZRq6Hy1B0-79" value="Nome" style="ellipse;whiteSpace=wrap;html=1;align=center;fontStyle=4;" parent="1" vertex="1">
          <mxGeometry x="1500" y="130" width="100" height="40" as="geometry" />
        </mxCell>
        <mxCell id="FF8oIaPpPTEZRq6Hy1B0-80" value="Cursos Ministrados" style="ellipse;whiteSpace=wrap;html=1;align=center;" parent="1" vertex="1">
          <mxGeometry x="1310" y="40" width="100" height="40" as="geometry" />
        </mxCell>
        <mxCell id="FF8oIaPpPTEZRq6Hy1B0-81" value="Especialização" style="ellipse;whiteSpace=wrap;html=1;align=center;" parent="1" vertex="1">
          <mxGeometry x="1460" y="210" width="100" height="40" as="geometry" />
        </mxCell>
        <mxCell id="FF8oIaPpPTEZRq6Hy1B0-82" value="Feedback dos Alunos" style="ellipse;whiteSpace=wrap;html=1;align=center;" parent="1" vertex="1">
          <mxGeometry x="1310" y="220" width="100" height="40" as="geometry" />
        </mxCell>
        <mxCell id="FF8oIaPpPTEZRq6Hy1B0-83" value="E-mail" style="ellipse;whiteSpace=wrap;html=1;align=center;" parent="1" vertex="1">
          <mxGeometry x="1470" y="50" width="100" height="40" as="geometry" />
        </mxCell>
        <mxCell id="FF8oIaPpPTEZRq6Hy1B0-84" value="" style="endArrow=none;html=1;rounded=0;" parent="1" source="FF8oIaPpPTEZRq6Hy1B0-80" target="FF8oIaPpPTEZRq6Hy1B0-76" edge="1">
          <mxGeometry relative="1" as="geometry">
            <mxPoint x="1040" y="410" as="sourcePoint" />
            <mxPoint x="1200" y="410" as="targetPoint" />
          </mxGeometry>
        </mxCell>
        <mxCell id="FF8oIaPpPTEZRq6Hy1B0-86" value="" style="endArrow=none;html=1;rounded=0;" parent="1" source="FF8oIaPpPTEZRq6Hy1B0-83" edge="1" target="FF8oIaPpPTEZRq6Hy1B0-76">
          <mxGeometry relative="1" as="geometry">
            <mxPoint x="1020" y="430" as="sourcePoint" />
            <mxPoint x="1140" y="460" as="targetPoint" />
          </mxGeometry>
        </mxCell>
        <mxCell id="FF8oIaPpPTEZRq6Hy1B0-87" value="" style="endArrow=none;html=1;rounded=0;" parent="1" source="FF8oIaPpPTEZRq6Hy1B0-76" target="FF8oIaPpPTEZRq6Hy1B0-81" edge="1">
          <mxGeometry relative="1" as="geometry">
            <mxPoint x="1030" y="440" as="sourcePoint" />
            <mxPoint x="1095" y="470" as="targetPoint" />
          </mxGeometry>
        </mxCell>
        <mxCell id="FF8oIaPpPTEZRq6Hy1B0-90" value="MÓDULO" style="whiteSpace=wrap;html=1;align=center;" parent="1" vertex="1">
          <mxGeometry x="720" y="430" width="100" height="40" as="geometry" />
        </mxCell>
        <mxCell id="FF8oIaPpPTEZRq6Hy1B0-91" value="" style="endArrow=none;html=1;rounded=0;" parent="1" source="bI2eBSoxsjv0CqPeTfN9-17" target="FF8oIaPpPTEZRq6Hy1B0-90" edge="1">
          <mxGeometry relative="1" as="geometry">
            <mxPoint x="770" y="330" as="sourcePoint" />
            <mxPoint x="769.75" y="420" as="targetPoint" />
          </mxGeometry>
        </mxCell>
        <mxCell id="FF8oIaPpPTEZRq6Hy1B0-92" value="(1,N)" style="resizable=0;html=1;whiteSpace=wrap;align=right;verticalAlign=bottom;" parent="FF8oIaPpPTEZRq6Hy1B0-91" connectable="0" vertex="1">
          <mxGeometry x="1" relative="1" as="geometry">
            <mxPoint x="40" y="-40" as="offset" />
          </mxGeometry>
        </mxCell>
        <mxCell id="FF8oIaPpPTEZRq6Hy1B0-93" value="" style="endArrow=none;html=1;rounded=0;entryX=0.5;entryY=1;entryDx=0;entryDy=0;exitX=0.511;exitY=0.01;exitDx=0;exitDy=0;exitPerimeter=0;" parent="1" source="bI2eBSoxsjv0CqPeTfN9-17" target="FF8oIaPpPTEZRq6Hy1B0-45" edge="1">
          <mxGeometry relative="1" as="geometry">
            <mxPoint x="770" y="270" as="sourcePoint" />
            <mxPoint x="610" y="610" as="targetPoint" />
          </mxGeometry>
        </mxCell>
        <mxCell id="FF8oIaPpPTEZRq6Hy1B0-94" value="(1,N)" style="resizable=0;html=1;whiteSpace=wrap;align=right;verticalAlign=bottom;" parent="FF8oIaPpPTEZRq6Hy1B0-93" connectable="0" vertex="1">
          <mxGeometry x="1" relative="1" as="geometry">
            <mxPoint x="40" y="70" as="offset" />
          </mxGeometry>
        </mxCell>
        <mxCell id="FF8oIaPpPTEZRq6Hy1B0-95" value="Ordem dentro do curso" style="ellipse;whiteSpace=wrap;html=1;align=center;" parent="1" vertex="1">
          <mxGeometry x="580" y="390" width="100" height="40" as="geometry" />
        </mxCell>
        <mxCell id="FF8oIaPpPTEZRq6Hy1B0-96" value="Descrição" style="ellipse;whiteSpace=wrap;html=1;align=center;" parent="1" vertex="1">
          <mxGeometry x="870" y="500" width="100" height="40" as="geometry" />
        </mxCell>
        <mxCell id="FF8oIaPpPTEZRq6Hy1B0-99" value="" style="endArrow=none;html=1;rounded=0;" parent="1" source="FF8oIaPpPTEZRq6Hy1B0-96" target="FF8oIaPpPTEZRq6Hy1B0-90" edge="1">
          <mxGeometry relative="1" as="geometry">
            <mxPoint x="450" y="810" as="sourcePoint" />
            <mxPoint x="610" y="810" as="targetPoint" />
          </mxGeometry>
        </mxCell>
        <mxCell id="FF8oIaPpPTEZRq6Hy1B0-100" value="" style="endArrow=none;html=1;rounded=0;" parent="1" source="FF8oIaPpPTEZRq6Hy1B0-90" target="FF8oIaPpPTEZRq6Hy1B0-95" edge="1">
          <mxGeometry relative="1" as="geometry">
            <mxPoint x="465" y="796" as="sourcePoint" />
            <mxPoint x="500" y="770" as="targetPoint" />
          </mxGeometry>
        </mxCell>
        <mxCell id="FF8oIaPpPTEZRq6Hy1B0-101" value="" style="endArrow=none;html=1;rounded=0;" parent="1" source="FF8oIaPpPTEZRq6Hy1B0-90" edge="1" target="FF8oIaPpPTEZRq6Hy1B0-121">
          <mxGeometry relative="1" as="geometry">
            <mxPoint x="820" y="450" as="sourcePoint" />
            <mxPoint x="624.6446609406726" y="714.1421356237308" as="targetPoint" />
          </mxGeometry>
        </mxCell>
        <mxCell id="FF8oIaPpPTEZRq6Hy1B0-103" value="Contém" style="shape=rhombus;perimeter=rhombusPerimeter;whiteSpace=wrap;html=1;align=center;" parent="1" vertex="1">
          <mxGeometry x="710" y="590" width="120" height="60" as="geometry" />
        </mxCell>
        <mxCell id="FF8oIaPpPTEZRq6Hy1B0-104" value="" style="endArrow=none;html=1;rounded=0;entryX=0.5;entryY=1;entryDx=0;entryDy=0;exitX=0.519;exitY=0.014;exitDx=0;exitDy=0;exitPerimeter=0;" parent="1" source="FF8oIaPpPTEZRq6Hy1B0-103" target="FF8oIaPpPTEZRq6Hy1B0-90" edge="1">
          <mxGeometry relative="1" as="geometry">
            <mxPoint x="450" y="910" as="sourcePoint" />
            <mxPoint x="610" y="910" as="targetPoint" />
          </mxGeometry>
        </mxCell>
        <mxCell id="FF8oIaPpPTEZRq6Hy1B0-105" value="(1,N)" style="resizable=0;html=1;whiteSpace=wrap;align=right;verticalAlign=bottom;" parent="FF8oIaPpPTEZRq6Hy1B0-104" connectable="0" vertex="1">
          <mxGeometry x="1" relative="1" as="geometry">
            <mxPoint x="40" y="80" as="offset" />
          </mxGeometry>
        </mxCell>
        <mxCell id="FF8oIaPpPTEZRq6Hy1B0-106" value="AULA" style="whiteSpace=wrap;html=1;align=center;" parent="1" vertex="1">
          <mxGeometry x="720" y="770" width="100" height="40" as="geometry" />
        </mxCell>
        <mxCell id="FF8oIaPpPTEZRq6Hy1B0-107" value="" style="endArrow=none;html=1;rounded=0;entryX=0.5;entryY=0;entryDx=0;entryDy=0;exitX=0.5;exitY=1;exitDx=0;exitDy=0;" parent="1" source="FF8oIaPpPTEZRq6Hy1B0-103" target="FF8oIaPpPTEZRq6Hy1B0-106" edge="1">
          <mxGeometry relative="1" as="geometry">
            <mxPoint x="450" y="910" as="sourcePoint" />
            <mxPoint x="610" y="910" as="targetPoint" />
          </mxGeometry>
        </mxCell>
        <mxCell id="FF8oIaPpPTEZRq6Hy1B0-108" value="(1,N)" style="resizable=0;html=1;whiteSpace=wrap;align=right;verticalAlign=bottom;" parent="FF8oIaPpPTEZRq6Hy1B0-107" connectable="0" vertex="1">
          <mxGeometry x="1" relative="1" as="geometry">
            <mxPoint x="40" y="-50" as="offset" />
          </mxGeometry>
        </mxCell>
        <mxCell id="FF8oIaPpPTEZRq6Hy1B0-109" value="Ordem dentro do Módulo" style="ellipse;whiteSpace=wrap;html=1;align=center;" parent="1" vertex="1">
          <mxGeometry x="940" y="810" width="100" height="40" as="geometry" />
        </mxCell>
        <mxCell id="FF8oIaPpPTEZRq6Hy1B0-110" value="Tipo (vídeo ou texto)" style="ellipse;whiteSpace=wrap;html=1;align=center;" parent="1" vertex="1">
          <mxGeometry x="740" y="900" width="100" height="40" as="geometry" />
        </mxCell>
        <mxCell id="FF8oIaPpPTEZRq6Hy1B0-111" value="Descrição" style="ellipse;whiteSpace=wrap;html=1;align=center;" parent="1" vertex="1">
          <mxGeometry x="510" y="830" width="100" height="40" as="geometry" />
        </mxCell>
        <mxCell id="FF8oIaPpPTEZRq6Hy1B0-112" value="Duração" style="ellipse;whiteSpace=wrap;html=1;align=center;" parent="1" vertex="1">
          <mxGeometry x="600" y="880" width="100" height="40" as="geometry" />
        </mxCell>
        <mxCell id="FF8oIaPpPTEZRq6Hy1B0-115" value="" style="endArrow=none;html=1;rounded=0;" parent="1" source="FF8oIaPpPTEZRq6Hy1B0-111" target="FF8oIaPpPTEZRq6Hy1B0-106" edge="1">
          <mxGeometry relative="1" as="geometry">
            <mxPoint x="450" y="810" as="sourcePoint" />
            <mxPoint x="610" y="810" as="targetPoint" />
          </mxGeometry>
        </mxCell>
        <mxCell id="FF8oIaPpPTEZRq6Hy1B0-116" value="" style="endArrow=none;html=1;rounded=0;" parent="1" source="FF8oIaPpPTEZRq6Hy1B0-112" target="FF8oIaPpPTEZRq6Hy1B0-106" edge="1">
          <mxGeometry relative="1" as="geometry">
            <mxPoint x="480" y="1000" as="sourcePoint" />
            <mxPoint x="525" y="1020" as="targetPoint" />
          </mxGeometry>
        </mxCell>
        <mxCell id="FF8oIaPpPTEZRq6Hy1B0-117" value="" style="endArrow=none;html=1;rounded=0;" parent="1" source="FF8oIaPpPTEZRq6Hy1B0-106" target="FF8oIaPpPTEZRq6Hy1B0-110" edge="1">
          <mxGeometry relative="1" as="geometry">
            <mxPoint x="490" y="1010" as="sourcePoint" />
            <mxPoint x="535" y="1030" as="targetPoint" />
          </mxGeometry>
        </mxCell>
        <mxCell id="FF8oIaPpPTEZRq6Hy1B0-119" value="" style="endArrow=none;html=1;rounded=0;" parent="1" source="FF8oIaPpPTEZRq6Hy1B0-106" target="FF8oIaPpPTEZRq6Hy1B0-109" edge="1">
          <mxGeometry relative="1" as="geometry">
            <mxPoint x="510" y="1030" as="sourcePoint" />
            <mxPoint x="555" y="1050" as="targetPoint" />
          </mxGeometry>
        </mxCell>
        <mxCell id="FF8oIaPpPTEZRq6Hy1B0-120" value="Nome" style="ellipse;whiteSpace=wrap;html=1;align=center;fontStyle=4;" parent="1" vertex="1">
          <mxGeometry x="880" y="880" width="100" height="40" as="geometry" />
        </mxCell>
        <mxCell id="FF8oIaPpPTEZRq6Hy1B0-121" value="Nome" style="ellipse;whiteSpace=wrap;html=1;align=center;fontStyle=4;" parent="1" vertex="1">
          <mxGeometry x="870" y="390" width="100" height="40" as="geometry" />
        </mxCell>
        <mxCell id="FF8oIaPpPTEZRq6Hy1B0-122" value="EMPRESAS" style="whiteSpace=wrap;html=1;align=center;" parent="1" vertex="1">
          <mxGeometry x="200" y="770" width="100" height="40" as="geometry" />
        </mxCell>
        <mxCell id="FF8oIaPpPTEZRq6Hy1B0-123" value="Nome" style="ellipse;whiteSpace=wrap;html=1;align=center;fontStyle=4;" parent="1" vertex="1">
          <mxGeometry x="85" y="870" width="100" height="40" as="geometry" />
        </mxCell>
        <mxCell id="FF8oIaPpPTEZRq6Hy1B0-124" value="Setor" style="ellipse;whiteSpace=wrap;html=1;align=center;" parent="1" vertex="1">
          <mxGeometry x="340" y="870" width="100" height="40" as="geometry" />
        </mxCell>
        <mxCell id="FF8oIaPpPTEZRq6Hy1B0-125" value="Localização" style="ellipse;whiteSpace=wrap;html=1;align=center;" parent="1" vertex="1">
          <mxGeometry x="200" y="890" width="100" height="40" as="geometry" />
        </mxCell>
        <mxCell id="FF8oIaPpPTEZRq6Hy1B0-126" value="VAGA" style="whiteSpace=wrap;html=1;align=center;" parent="1" vertex="1">
          <mxGeometry x="200" y="440" width="100" height="40" as="geometry" />
        </mxCell>
        <mxCell id="FF8oIaPpPTEZRq6Hy1B0-128" value="" style="endArrow=none;html=1;rounded=0;" parent="1" source="FF8oIaPpPTEZRq6Hy1B0-137" target="FF8oIaPpPTEZRq6Hy1B0-122" edge="1">
          <mxGeometry relative="1" as="geometry">
            <mxPoint x="25" y="695" as="sourcePoint" />
            <mxPoint x="205" y="630" as="targetPoint" />
          </mxGeometry>
        </mxCell>
        <mxCell id="FF8oIaPpPTEZRq6Hy1B0-129" value="(1,N)" style="resizable=0;html=1;whiteSpace=wrap;align=right;verticalAlign=bottom;" parent="FF8oIaPpPTEZRq6Hy1B0-128" connectable="0" vertex="1">
          <mxGeometry x="1" relative="1" as="geometry">
            <mxPoint x="-10" y="-60" as="offset" />
          </mxGeometry>
        </mxCell>
        <mxCell id="FF8oIaPpPTEZRq6Hy1B0-130" value="" style="endArrow=none;html=1;rounded=0;" parent="1" source="FF8oIaPpPTEZRq6Hy1B0-137" target="FF8oIaPpPTEZRq6Hy1B0-126" edge="1">
          <mxGeometry relative="1" as="geometry">
            <mxPoint x="44" y="490.98" as="sourcePoint" />
            <mxPoint x="-60" y="590" as="targetPoint" />
          </mxGeometry>
        </mxCell>
        <mxCell id="FF8oIaPpPTEZRq6Hy1B0-131" value="(1,N)" style="resizable=0;html=1;whiteSpace=wrap;align=right;verticalAlign=bottom;" parent="FF8oIaPpPTEZRq6Hy1B0-130" connectable="0" vertex="1">
          <mxGeometry x="1" relative="1" as="geometry">
            <mxPoint x="-10" y="60" as="offset" />
          </mxGeometry>
        </mxCell>
        <mxCell id="FF8oIaPpPTEZRq6Hy1B0-132" value="" style="endArrow=none;html=1;rounded=0;" parent="1" source="FF8oIaPpPTEZRq6Hy1B0-122" target="FF8oIaPpPTEZRq6Hy1B0-123" edge="1">
          <mxGeometry relative="1" as="geometry">
            <mxPoint x="144.64" y="670" as="sourcePoint" />
            <mxPoint x="139.99533905932742" y="835.8578643762692" as="targetPoint" />
          </mxGeometry>
        </mxCell>
        <mxCell id="FF8oIaPpPTEZRq6Hy1B0-137" value="Oferecem" style="shape=rhombus;double=1;perimeter=rhombusPerimeter;whiteSpace=wrap;html=1;align=center;" parent="1" vertex="1">
          <mxGeometry x="190" y="590" width="120" height="60" as="geometry" />
        </mxCell>
        <mxCell id="FF8oIaPpPTEZRq6Hy1B0-138" value="&lt;span style=&quot;border-bottom: 1px dotted&quot;&gt;Empresa&lt;/span&gt;" style="ellipse;whiteSpace=wrap;html=1;align=center;" parent="1" vertex="1">
          <mxGeometry x="80" y="500" width="100" height="40" as="geometry" />
        </mxCell>
        <mxCell id="FF8oIaPpPTEZRq6Hy1B0-139" value="Certificações Necessárias" style="ellipse;whiteSpace=wrap;html=1;align=center;" parent="1" vertex="1">
          <mxGeometry x="80" y="390" width="100" height="40" as="geometry" />
        </mxCell>
        <mxCell id="FF8oIaPpPTEZRq6Hy1B0-140" value="Descrição" style="ellipse;whiteSpace=wrap;html=1;align=center;" parent="1" vertex="1">
          <mxGeometry x="330" y="500" width="100" height="40" as="geometry" />
        </mxCell>
        <mxCell id="FF8oIaPpPTEZRq6Hy1B0-141" value="Habilidades Necessárias" style="ellipse;whiteSpace=wrap;html=1;align=center;" parent="1" vertex="1">
          <mxGeometry x="330" y="390" width="100" height="40" as="geometry" />
        </mxCell>
        <mxCell id="FF8oIaPpPTEZRq6Hy1B0-142" value="SE QUALIFICAM" style="shape=rhombus;perimeter=rhombusPerimeter;whiteSpace=wrap;html=1;align=center;" parent="1" vertex="1">
          <mxGeometry x="190" y="260" width="120" height="60" as="geometry" />
        </mxCell>
        <mxCell id="FF8oIaPpPTEZRq6Hy1B0-143" value="" style="endArrow=none;html=1;rounded=0;" parent="1" source="FF8oIaPpPTEZRq6Hy1B0-138" target="FF8oIaPpPTEZRq6Hy1B0-126" edge="1">
          <mxGeometry relative="1" as="geometry">
            <mxPoint x="305" y="510" as="sourcePoint" />
            <mxPoint x="465" y="510" as="targetPoint" />
          </mxGeometry>
        </mxCell>
        <mxCell id="FF8oIaPpPTEZRq6Hy1B0-144" value="" style="endArrow=none;html=1;rounded=0;" parent="1" source="FF8oIaPpPTEZRq6Hy1B0-139" target="FF8oIaPpPTEZRq6Hy1B0-126" edge="1">
          <mxGeometry relative="1" as="geometry">
            <mxPoint x="195" y="490" as="sourcePoint" />
            <mxPoint x="240" y="480" as="targetPoint" />
          </mxGeometry>
        </mxCell>
        <mxCell id="FF8oIaPpPTEZRq6Hy1B0-145" value="" style="endArrow=none;html=1;rounded=0;" parent="1" source="FF8oIaPpPTEZRq6Hy1B0-141" target="FF8oIaPpPTEZRq6Hy1B0-126" edge="1">
          <mxGeometry relative="1" as="geometry">
            <mxPoint x="205" y="500" as="sourcePoint" />
            <mxPoint x="250" y="490" as="targetPoint" />
          </mxGeometry>
        </mxCell>
        <mxCell id="FF8oIaPpPTEZRq6Hy1B0-146" value="" style="endArrow=none;html=1;rounded=0;" parent="1" source="FF8oIaPpPTEZRq6Hy1B0-126" target="FF8oIaPpPTEZRq6Hy1B0-140" edge="1">
          <mxGeometry relative="1" as="geometry">
            <mxPoint x="215" y="510" as="sourcePoint" />
            <mxPoint x="260" y="500" as="targetPoint" />
          </mxGeometry>
        </mxCell>
        <mxCell id="FF8oIaPpPTEZRq6Hy1B0-147" value="" style="endArrow=none;html=1;rounded=0;" parent="1" source="FF8oIaPpPTEZRq6Hy1B0-142" target="FF8oIaPpPTEZRq6Hy1B0-1" edge="1">
          <mxGeometry relative="1" as="geometry">
            <mxPoint x="170" y="420" as="sourcePoint" />
            <mxPoint x="330" y="420" as="targetPoint" />
          </mxGeometry>
        </mxCell>
        <mxCell id="FF8oIaPpPTEZRq6Hy1B0-148" value="(0,N)" style="resizable=0;html=1;whiteSpace=wrap;align=right;verticalAlign=bottom;" parent="FF8oIaPpPTEZRq6Hy1B0-147" connectable="0" vertex="1">
          <mxGeometry x="1" relative="1" as="geometry">
            <mxPoint y="60" as="offset" />
          </mxGeometry>
        </mxCell>
        <mxCell id="FF8oIaPpPTEZRq6Hy1B0-149" value="" style="endArrow=none;html=1;rounded=0;" parent="1" source="FF8oIaPpPTEZRq6Hy1B0-142" target="FF8oIaPpPTEZRq6Hy1B0-126" edge="1">
          <mxGeometry relative="1" as="geometry">
            <mxPoint x="147" y="290" as="sourcePoint" />
            <mxPoint x="330" y="420" as="targetPoint" />
          </mxGeometry>
        </mxCell>
        <mxCell id="FF8oIaPpPTEZRq6Hy1B0-150" value="(1,N)" style="resizable=0;html=1;whiteSpace=wrap;align=right;verticalAlign=bottom;" parent="FF8oIaPpPTEZRq6Hy1B0-149" connectable="0" vertex="1">
          <mxGeometry x="1" relative="1" as="geometry">
            <mxPoint y="-60" as="offset" />
          </mxGeometry>
        </mxCell>
        <mxCell id="FF8oIaPpPTEZRq6Hy1B0-151" value="Nome" style="ellipse;whiteSpace=wrap;html=1;align=center;fontStyle=4;" parent="1" vertex="1">
          <mxGeometry x="90" y="180" width="100" height="40" as="geometry" />
        </mxCell>
        <mxCell id="bI2eBSoxsjv0CqPeTfN9-1" value="" style="endArrow=none;html=1;rounded=0;" edge="1" parent="1" source="FF8oIaPpPTEZRq6Hy1B0-45" target="FF8oIaPpPTEZRq6Hy1B0-58">
          <mxGeometry width="50" height="50" relative="1" as="geometry">
            <mxPoint x="890" y="330" as="sourcePoint" />
            <mxPoint x="940" y="280" as="targetPoint" />
          </mxGeometry>
        </mxCell>
        <mxCell id="bI2eBSoxsjv0CqPeTfN9-2" value="" style="endArrow=none;html=1;rounded=0;" edge="1" parent="1" source="FF8oIaPpPTEZRq6Hy1B0-42" target="FF8oIaPpPTEZRq6Hy1B0-45">
          <mxGeometry width="50" height="50" relative="1" as="geometry">
            <mxPoint x="890" y="330" as="sourcePoint" />
            <mxPoint x="940" y="280" as="targetPoint" />
          </mxGeometry>
        </mxCell>
        <mxCell id="bI2eBSoxsjv0CqPeTfN9-4" value="" style="endArrow=none;html=1;rounded=0;" edge="1" parent="1" source="FF8oIaPpPTEZRq6Hy1B0-82" target="FF8oIaPpPTEZRq6Hy1B0-76">
          <mxGeometry width="50" height="50" relative="1" as="geometry">
            <mxPoint x="1270" y="360" as="sourcePoint" />
            <mxPoint x="1320" y="310" as="targetPoint" />
          </mxGeometry>
        </mxCell>
        <mxCell id="bI2eBSoxsjv0CqPeTfN9-5" value="" style="endArrow=none;html=1;rounded=0;" edge="1" parent="1" source="FF8oIaPpPTEZRq6Hy1B0-76" target="FF8oIaPpPTEZRq6Hy1B0-79">
          <mxGeometry width="50" height="50" relative="1" as="geometry">
            <mxPoint x="1270" y="360" as="sourcePoint" />
            <mxPoint x="1320" y="310" as="targetPoint" />
          </mxGeometry>
        </mxCell>
        <mxCell id="bI2eBSoxsjv0CqPeTfN9-7" value="" style="endArrow=none;html=1;rounded=0;" edge="1" parent="1" source="FF8oIaPpPTEZRq6Hy1B0-106" target="FF8oIaPpPTEZRq6Hy1B0-120">
          <mxGeometry width="50" height="50" relative="1" as="geometry">
            <mxPoint x="940" y="640" as="sourcePoint" />
            <mxPoint x="990" y="590" as="targetPoint" />
          </mxGeometry>
        </mxCell>
        <mxCell id="bI2eBSoxsjv0CqPeTfN9-9" value="" style="endArrow=none;html=1;rounded=0;" edge="1" parent="1" source="FF8oIaPpPTEZRq6Hy1B0-9" target="FF8oIaPpPTEZRq6Hy1B0-1">
          <mxGeometry width="50" height="50" relative="1" as="geometry">
            <mxPoint x="400" y="190" as="sourcePoint" />
            <mxPoint x="450" y="140" as="targetPoint" />
          </mxGeometry>
        </mxCell>
        <mxCell id="bI2eBSoxsjv0CqPeTfN9-10" value="" style="endArrow=none;html=1;rounded=0;" edge="1" parent="1" source="FF8oIaPpPTEZRq6Hy1B0-1" target="bI2eBSoxsjv0CqPeTfN9-21">
          <mxGeometry width="50" height="50" relative="1" as="geometry">
            <mxPoint x="400" y="190" as="sourcePoint" />
            <mxPoint x="364.6446609406728" y="104.1421356237309" as="targetPoint" />
          </mxGeometry>
        </mxCell>
        <mxCell id="bI2eBSoxsjv0CqPeTfN9-12" value="" style="endArrow=none;html=1;rounded=0;" edge="1" parent="1" source="FF8oIaPpPTEZRq6Hy1B0-125" target="FF8oIaPpPTEZRq6Hy1B0-122">
          <mxGeometry width="50" height="50" relative="1" as="geometry">
            <mxPoint x="210" y="905" as="sourcePoint" />
            <mxPoint x="260" y="855" as="targetPoint" />
          </mxGeometry>
        </mxCell>
        <mxCell id="bI2eBSoxsjv0CqPeTfN9-13" value="" style="endArrow=none;html=1;rounded=0;" edge="1" parent="1" source="FF8oIaPpPTEZRq6Hy1B0-122" target="FF8oIaPpPTEZRq6Hy1B0-124">
          <mxGeometry width="50" height="50" relative="1" as="geometry">
            <mxPoint x="380" y="720" as="sourcePoint" />
            <mxPoint x="430" y="670" as="targetPoint" />
          </mxGeometry>
        </mxCell>
        <mxCell id="bI2eBSoxsjv0CqPeTfN9-15" value="&amp;nbsp;" style="text;whiteSpace=wrap;html=1;" vertex="1" parent="1">
          <mxGeometry x="450" y="90" width="40" height="40" as="geometry" />
        </mxCell>
        <mxCell id="bI2eBSoxsjv0CqPeTfN9-16" value="&lt;div&gt;(1,N)&lt;/div&gt;" style="resizable=0;html=1;whiteSpace=wrap;align=right;verticalAlign=bottom;rotation=0;" connectable="0" vertex="1" parent="1">
          <mxGeometry x="659.9999999999998" y="140" as="geometry">
            <mxPoint x="5.07271519359962" y="10.544243920620543" as="offset" />
          </mxGeometry>
        </mxCell>
        <mxCell id="bI2eBSoxsjv0CqPeTfN9-17" value="Contém" style="shape=rhombus;perimeter=rhombusPerimeter;whiteSpace=wrap;html=1;align=center;" vertex="1" parent="1">
          <mxGeometry x="710" y="280" width="120" height="60" as="geometry" />
        </mxCell>
        <mxCell id="bI2eBSoxsjv0CqPeTfN9-18" value="" style="endArrow=none;html=1;rounded=0;exitX=0.486;exitY=0.011;exitDx=0;exitDy=0;exitPerimeter=0;entryX=0.464;entryY=1;entryDx=0;entryDy=0;entryPerimeter=0;" edge="1" parent="1" source="bI2eBSoxsjv0CqPeTfN9-17" target="FF8oIaPpPTEZRq6Hy1B0-45">
          <mxGeometry width="50" height="50" relative="1" as="geometry">
            <mxPoint x="950" y="390" as="sourcePoint" />
            <mxPoint x="770" y="170" as="targetPoint" />
          </mxGeometry>
        </mxCell>
        <mxCell id="bI2eBSoxsjv0CqPeTfN9-19" value="" style="endArrow=none;html=1;rounded=0;exitX=0.482;exitY=0.01;exitDx=0;exitDy=0;exitPerimeter=0;entryX=0.459;entryY=1.009;entryDx=0;entryDy=0;entryPerimeter=0;" edge="1" parent="1" source="FF8oIaPpPTEZRq6Hy1B0-103" target="FF8oIaPpPTEZRq6Hy1B0-90">
          <mxGeometry width="50" height="50" relative="1" as="geometry">
            <mxPoint x="750" y="580" as="sourcePoint" />
            <mxPoint x="760" y="490" as="targetPoint" />
          </mxGeometry>
        </mxCell>
        <mxCell id="bI2eBSoxsjv0CqPeTfN9-20" value="" style="endArrow=none;html=1;rounded=0;" edge="1" parent="1" source="FF8oIaPpPTEZRq6Hy1B0-1" target="FF8oIaPpPTEZRq6Hy1B0-11">
          <mxGeometry width="50" height="50" relative="1" as="geometry">
            <mxPoint x="300" y="150" as="sourcePoint" />
            <mxPoint x="350" y="100" as="targetPoint" />
          </mxGeometry>
        </mxCell>
        <mxCell id="bI2eBSoxsjv0CqPeTfN9-21" value="Progresso em cada curso" style="ellipse;shape=doubleEllipse;margin=3;whiteSpace=wrap;html=1;align=center;" vertex="1" parent="1">
          <mxGeometry x="360" y="70" width="100" height="40" as="geometry" />
        </mxCell>
      </root>
    </mxGraphModel>
  </diagram>
</mxfile>
